<svg width="178" height="178" viewBox="0 0 178 178" fill="none" xmlns="http://www.w3.org/2000/svg">
<path d="M132.715 29.6132C93.684 -9.41796 33.9198 11.0735 14.517 47.4069C-10.1623 93.622 11.3575 167.317 85.9335 169.095" stroke="#33342E" stroke-width="0.888" stroke-miterlimit="10"/>
<path d="M139.915 37.5303C169.466 78.7477 160.444 97.4081 147.115 130.422L132.715 149.083C124.741 159.719 110.986 165.376 94.9805 169.095" stroke="#33342E" stroke-width="0.888" stroke-miterlimit="10"/>
<path d="M159.602 87.6029L167.139 76.4336" stroke="#33342E" stroke-width="0.888" stroke-miterlimit="10"/>
<path d="M147.115 130.422L157.375 118.652" stroke="#33342E" stroke-width="0.888" stroke-miterlimit="10"/>
<path d="M143.822 54.7217L153.358 59.9964" stroke="#33342E" stroke-width="0.888" stroke-miterlimit="10"/>
<path d="M140.277 139.284C140.354 135.704 141.103 132.619 143.421 129.191C144.488 127.612 145.057 125.749 145.057 123.844V110.232" stroke="#33342E" stroke-width="0.5328" stroke-miterlimit="10"/>
<path d="M115.325 153.081C116.323 156.553 115.959 160.025 114.234 163.497" stroke="#33342E" stroke-width="0.5328" stroke-miterlimit="10"/>
<path d="M115.873 153.685C114.112 152.228 112.114 149.989 110.956 148.183C109.972 146.648 109.481 144.844 109.508 143.02C109.59 137.603 111.234 133.323 113.636 130.019C113.907 129.645 114.468 129.643 114.744 130.016C117.026 133.11 118.193 137.298 118.784 143.18C118.829 143.624 118.818 145.27 118.752 145.712C118.338 148.508 117.417 151.665 115.873 153.685Z" fill="#65706E"/>
<path d="M115.873 153.685C111.774 148.183 101.145 143.783 91.9044 141.198C91.6611 141.13 91.4782 141.418 91.6398 141.611C97.9357 149.197 107.206 154.512 115.875 153.685" fill="#C6CAC5"/>
<path d="M115.053 150.063C112.54 145.66 114.286 137.21 114.275 133.305" stroke="#E6EDEB" stroke-width="0.1776" stroke-miterlimit="10"/>
<path d="M113.696 152.576C109.778 149.4 101.569 147.195 95.6429 143.584" stroke="#E6EDEB" stroke-width="0.1776" stroke-miterlimit="10"/>
<path d="M152.706 124.009C158.835 119.761 164.092 119.326 168.136 124.196C168.78 124.972 169.7 125.469 170.702 125.592L172.476 125.808C172.879 125.858 172.981 126.391 172.627 126.59C164.486 131.147 157.18 130.852 152.706 124.011V124.009Z" fill="#656F6C"/>
<path d="M143.162 153.988C139.947 149.31 139.245 143.771 141.135 138.171C147.021 141.975 148.72 148.566 144.405 154.023C144.083 154.43 143.455 154.416 143.16 153.988H143.162Z" fill="#656F6C"/>
<path d="M141.137 138.169C143.719 140.208 150.647 137.2 157.957 133.348C159.108 132.742 160.82 132.241 162.12 132.241H168.841C169.446 132.241 169.842 132.9 169.072 133.641C157.648 144.629 144.08 147.172 141.135 138.169H141.137Z" fill="#444E4C"/>
<path d="M144.161 139.924C151.374 141.911 158.808 137.093 164.593 134.109" stroke="#E6EDEB" stroke-width="0.1776" stroke-miterlimit="10"/>
<path d="M141.773 140.407C143.641 143.679 144.641 147.543 143.936 152.576" stroke="#E6EDEB" stroke-width="0.1776" stroke-miterlimit="10"/>
<path d="M154.123 123.982C160.881 122.752 164.175 127.467 170.032 126.746" stroke="#E6EDEB" stroke-width="0.1776" stroke-miterlimit="10"/>
<path d="M145.057 121.686C148.49 109.608 151.697 96.1049 163.275 97.7211C163.96 97.817 164.445 98.4546 164.353 99.1401C163.745 103.69 152.645 116.183 147.433 120.457C146.838 120.946 145.447 121.44 145.055 121.686H145.057Z" fill="#B9AA8C"/>
<path d="M147.435 117.974C152.312 110.225 156.189 100.656 162.078 99.6494" stroke="#E6EDEB" stroke-width="0.1776" stroke-miterlimit="10"/>
<path d="M145.057 121.686C143.046 120.862 140.073 118.85 138.155 117.974C130.975 114.699 125.02 111.408 119.795 105.841C118.021 103.951 117.983 101.033 119.253 100.902C121.848 100.633 127.099 100.665 130.774 101.294C132.793 101.64 134.647 102.637 136.052 104.13C141.055 109.45 144.433 115.042 145.058 121.684L145.057 121.686Z" fill="#66716F"/>
<path d="M143.645 119.364C137.304 111.393 129.943 105.822 121.398 103.033" stroke="#E6EDEB" stroke-width="0.1776" stroke-miterlimit="10"/>
<path d="M125.14 79.8238C121.194 89.4568 127.416 97.6566 134.692 104.1C137.821 106.871 141.297 110.851 144.161 110.232C142.762 95.9747 140.627 81.1895 127.966 78.3373C126.789 78.0727 125.599 78.7049 125.14 79.8238Z" fill="#454E4C"/>
<path d="M144.161 110.232C141.579 105.89 138.77 101.469 134.983 98.5781" stroke="#E6EDEB" stroke-width="0.1776" stroke-miterlimit="10"/>
<path d="M129.328 82.6104L138.31 97.5891" stroke="#E6EDEB" stroke-width="0.1776" stroke-miterlimit="10"/>
<path d="M144.202 109.753C141.386 90.4608 144.481 81.0924 155.297 73.6243C155.796 73.2798 156.492 73.4822 156.728 74.0417C158.732 78.757 157.943 83.831 155.215 89.1537C155.171 89.2407 155.29 89.3171 155.349 89.2371L158.458 85.0245C157.487 95.2471 154.7 104.207 145.318 110.286C144.867 110.579 144.279 110.286 144.201 109.755L144.202 109.753Z" fill="#66706E"/>
<path d="M145.057 108.483C146.675 96.2611 151.333 85.9034 155.773 75.2705" stroke="#E6EDEB" stroke-width="0.1776" stroke-miterlimit="10"/>
<path d="M150.58 54.4076L150.193 48.9375C150.09 47.4937 150.747 46.1013 151.924 45.2612C155.592 42.647 160.174 40.4536 164.109 39.475C164.827 39.2956 165.5 39.9048 165.404 40.6383C164.676 46.2203 158.094 51.8147 150.58 54.4058V54.4076Z" fill="#444E4B"/>
<path d="M150.837 53.9978C152.672 49.6644 156.862 45.1054 162.078 41.7754" stroke="#E6EDEB" stroke-width="0.1776" stroke-miterlimit="10"/>
<path d="M118.116 46.1832C123.565 53.424 133.495 55.3332 144.618 55.8216C137.169 48.7815 128.664 44.8121 118.793 44.8086C118.086 44.8086 117.69 45.6167 118.115 46.1832H118.116Z" fill="#C5C4AD"/>
<path d="M142.583 53.9972C135.1 52.7735 127.618 50.1699 120.136 46.1846" stroke="#E6EDEB" stroke-width="0.1776" stroke-miterlimit="10"/>
<path d="M134.924 40.4412C142.753 44.0074 146.197 49.4278 144.618 55.8214C138.5 51.3246 132.058 46.3997 133.154 41.3275C133.324 40.5354 134.186 40.1056 134.923 40.4412H134.924Z" fill="#66706E"/>
<path d="M134.688 42.1924C135.789 45.7479 142.345 50.0903 144.618 55.8214" stroke="#E6EDEB" stroke-width="0.1776" stroke-miterlimit="10"/>
<path d="M140.348 37.5301C138.828 38.6791 137.089 39.1889 134.177 39.9348C133.53 40.0999 132.843 40.1745 132.145 40.1355C129.538 39.9881 127.188 38.8603 124.993 37.1305C124.517 36.7557 124.409 36.1803 124.723 35.7594C125.151 35.1858 125.613 34.6583 126.123 34.1983C126.925 33.4737 128.083 33.0759 129.335 33.0936L131.204 33.2322C131.38 33.2339 131.428 33.0457 131.271 32.9675C130.623 32.6407 129.508 32.2216 129.042 31.751C128.78 31.4863 128.843 31.1116 129.163 30.9447C129.929 30.5468 130.781 30.1721 131.504 30.0922L133.482 28.9129C133.722 28.7708 133.886 28.5595 133.942 28.3144C134.047 27.8669 134.022 27.4602 133.907 26.9504C133.768 26.3324 134.012 25.7303 134.546 25.3361C135.173 24.8743 136.011 24.5191 136.997 24.306C137.572 24.1817 138.217 24.3823 138.599 24.8015L139.602 25.9044L140.505 26.2489C140.945 26.4176 141.545 26.8368 141.783 27.1867C143.545 29.7832 142.707 31.1684 141.771 32.8468C141.76 32.8681 141.787 32.8858 141.801 32.8663C142.664 31.719 143.671 30.7369 144.978 30.1011C145.271 29.959 145.591 29.8524 145.93 29.7903C147.142 29.5683 148.324 29.6855 149.845 30.1099C150.972 30.4243 151.908 31.1418 152.391 32.0422C152.901 32.9924 152.956 33.0421 152.363 34.1095C151.059 35.763 148.106 34.5748 145.133 35.0863C144.733 35.1556 144.373 35.3083 144.076 35.525L143.655 35.8322C143.433 35.9938 143.604 36.3153 143.915 36.3259C145.47 36.3775 146.936 36.3259 148.166 36.0205L150.337 35.4451C150.77 35.3296 152.106 35.1609 152.564 35.2852L153.933 35.8837C154.386 36.0063 154.679 36.7415 154.938 37.0772L155.201 37.9972C155.658 38.6685 155.929 39.1356 155.187 39.4961C154.983 39.5956 153.418 40.5031 152.876 40.0769L152.322 39.5512C152.097 39.3345 151.965 38.7626 151.633 38.7307L150.754 38.3772C150.601 38.3612 147.275 38.8195 147.38 38.9189L149.893 39.299C150.527 39.3949 151.072 39.7554 151.356 40.2651C151.464 40.4587 151.567 40.6736 151.653 40.8991C151.871 41.4799 151.615 42.1104 151.035 42.4354C150.697 42.4727 150.218 42.4638 149.919 42.5846L149.317 42.6485C149.045 42.7604 148.772 42.9131 148.486 42.8741C148.351 42.8563 148.216 42.8492 148.083 42.8794L147.442 43.0303C147.209 43.0854 146.964 43.0623 146.747 42.9611C146.394 42.7977 145.964 42.6148 145.699 42.6894L145.469 42.787C145.158 42.9185 144.804 42.9273 144.49 42.8012C142.032 41.8173 141.231 40.0698 140.997 37.8036C140.966 37.5176 140.645 37.4111 140.343 37.5301H140.348Z" fill="#FEFCF7"/>
<path d="M141.352 35.1803C142.744 34.1378 146.207 32.3405 147.836 32.1416C147.784 32.9053 144.188 34.0881 141.352 35.1803Z" fill="#838785"/>
<path d="M141.801 35.376C143.087 36.9531 144.598 38.0329 146.421 38.429C146.492 38.445 146.493 38.5284 146.421 38.5355C145.238 38.6315 144.202 38.3366 143.277 37.7452C143.245 37.7239 143.208 37.7541 143.231 37.7807L144.877 39.5692C144.938 39.6438 144.831 39.7201 144.748 39.6633C143.714 38.9529 142.551 37.9939 141.735 36.8785C141.64 36.7471 141.446 36.6885 141.286 36.7418C140.281 37.1716 139.395 37.4433 138.897 37.1964L139.961 36.6583C139.991 36.6441 139.965 36.605 139.931 36.6139C138.46 37.0046 137.01 37.0188 135.569 36.8111C135.514 36.804 135.512 36.7382 135.567 36.7365C137.114 36.6903 138.336 36.5571 138.908 36.2463C137.906 36.4772 136.875 36.2623 135.836 35.9177C136.049 35.083 137.747 35.694 139.901 35.8591L136.805 34.964C136.654 34.9214 136.621 34.7509 136.754 34.6976C136.94 34.623 137.232 34.6426 137.532 34.7118C137.587 34.7243 137.615 34.671 137.572 34.639C137.407 34.5165 137.258 34.3726 137.13 34.2074C137.081 34.1435 137.152 34.0707 137.237 34.0991C138.119 34.3904 139.022 34.8486 139.73 35.2677L141.798 35.3831L141.801 35.376Z" fill="#D2C9B1"/>
<path d="M131.22 33.7063C131.655 35.1449 136.413 37.1429 136.209 36.0045C136.022 34.5197 133.589 33.6814 131.721 33.2961C131.406 33.2303 131.14 33.447 131.218 33.7063H131.22Z" fill="#4A5351"/>
<path d="M131.22 33.7059C131.655 35.1444 136.443 37.1549 136.239 36.0182C136.052 34.5335 131.142 33.4484 131.22 33.7059Z" fill="#2D3433"/>
<path d="M138.068 32.6394C138.08 33.7103 138.967 34.7812 139.956 35.7527C140.174 35.9676 140.519 36.0635 140.824 35.996C142.691 35.5769 141.519 35.3691 143.678 34.0495C143.696 34.0388 143.675 34.014 143.655 34.0229C143.028 34.3266 142.437 34.6125 141.929 34.8576C141.849 34.8966 141.75 34.815 141.796 34.7492L142.952 33.0834C142.97 33.0585 142.925 33.0301 142.9 33.0496C142.3 33.5646 141.783 34.0921 141.371 34.6356C141.35 34.6622 141.299 34.6391 141.311 34.6089L142.281 32.3179C141.732 33.0123 141.235 33.6712 140.984 34.2537C140.974 34.2768 140.929 34.2662 140.931 34.2413C141.011 33.5274 141.11 32.7921 141.228 32.0391C140.879 32.7939 140.601 33.5291 140.441 34.2289C140.432 34.2662 140.364 34.2573 140.361 34.2182L140.18 32.3712C140.18 32.3552 140.151 32.3516 140.148 32.3676C140.027 32.9395 139.981 33.5043 140.089 34.0619C140.103 34.1312 139.991 34.1561 139.947 34.0939C139.624 33.6392 139.357 33.1402 139.139 32.6056C139.125 32.5701 139.061 32.5736 139.063 32.6109C139.073 33.2041 139.222 33.7192 139.549 34.1632C139.606 34.2395 139.505 34.3177 139.414 34.2679C138.796 33.9252 138.329 33.403 138.068 32.6376V32.6394Z" fill="#54605E"/>
<path d="M142.151 36.0967C142.645 35.5728 143.412 35.0364 144.321 34.4912C143.678 35.2904 143.011 35.9315 142.304 36.3525L142.151 36.0949V36.0967Z" fill="#54605E"/>
<path d="M138.556 32.6297C138.599 32.9281 138.418 33.1732 138.148 33.1785C137.878 33.1839 137.626 32.9459 137.583 32.6475C137.541 32.3491 137.722 32.104 137.992 32.0987C138.262 32.0934 138.514 32.3314 138.556 32.6297Z" fill="#333A36"/>
<path d="M139.437 32.5732C139.347 32.7366 139.137 32.8112 138.967 32.7384C138.796 32.6656 138.732 32.4738 138.821 32.3086C138.91 32.1434 139.121 32.0706 139.292 32.1434C139.462 32.2163 139.526 32.4081 139.437 32.5732Z" fill="#333A36"/>
<path d="M144.625 34.733C144.43 34.8999 144.135 34.9283 143.968 34.7951C143.801 34.6619 143.824 34.4186 144.019 34.2517C144.215 34.0847 144.51 34.0563 144.676 34.1895C144.843 34.3227 144.82 34.566 144.625 34.733Z" fill="#333A36"/>
<path d="M140.517 32.4131C140.409 32.612 140.165 32.7079 139.975 32.6262C139.785 32.5445 139.718 32.3172 139.828 32.1183C139.938 31.9194 140.18 31.8234 140.37 31.9051C140.56 31.9868 140.627 32.2142 140.517 32.4131Z" fill="#333A36"/>
<path d="M143.939 34.2266C143.765 34.3883 143.494 34.4238 143.332 34.3048C143.17 34.1858 143.181 33.9585 143.353 33.7951C143.527 33.6335 143.799 33.5979 143.961 33.7169C144.122 33.8359 144.112 34.0632 143.939 34.2266Z" fill="#333A36"/>
<path d="M143.323 33.2656C143.138 33.5 142.815 33.5906 142.599 33.4662C142.382 33.3419 142.357 33.0524 142.54 32.818C142.723 32.5836 143.048 32.493 143.265 32.6173C143.481 32.7416 143.506 33.0311 143.323 33.2656Z" fill="#333A36"/>
<path d="M141.613 32.2179C141.693 31.9644 141.572 31.7003 141.343 31.628C141.114 31.5557 140.863 31.7026 140.783 31.9561C140.703 32.2095 140.824 32.4737 141.054 32.546C141.283 32.6183 141.533 32.4714 141.613 32.2179Z" fill="#333A36"/>
<path d="M129.723 152.576C130.369 149.944 130.369 148.042 129.723 144.909" stroke="#33342E" stroke-width="0.5328" stroke-miterlimit="10"/>
<path d="M130.181 148.081C126.677 147.124 122.755 145.809 121.988 141.733C121.905 141.288 122.244 140.863 122.697 140.858C124.208 140.842 125.727 141.733 126.707 142.943C126.734 142.977 126.785 142.939 126.764 142.902C125.231 140.25 122.718 138.025 126.387 135.878C128.305 136.016 129.579 138.203 130.394 140.844C130.966 138.577 132.062 136.83 133.839 136.111C134.239 135.949 134.697 136.144 134.845 136.551C136.72 141.76 135.022 145.641 130.183 148.079L130.181 148.081Z" fill="#FEFCF7"/>
<path d="M130.09 147.344C128.373 146.875 124.94 145.389 124.757 143.224C126.879 145.233 128.06 145.03 128.485 144.972C128.504 144.97 128.52 144.972 128.511 144.954C127.805 143.73 128.284 143.517 127.787 140.176C128.764 143.776 129.811 142.783 130.186 144.004C130.495 142.783 131.548 144.476 133.413 139.438C133.651 142.062 132.262 145.144 130.088 147.344H130.09Z" fill="#D2C9B1"/>
<path d="M130.181 148.081L127.385 146.161C127.135 145.989 127.256 145.597 127.561 145.597H128.078C128.472 145.597 128.815 145.323 128.902 144.938L129.028 144.378C129.167 143.767 129.953 143.595 130.335 144.09C130.508 144.314 130.808 144.392 131.065 144.282L131.28 144.19C131.745 143.993 132.197 144.497 131.948 144.938L130.177 148.078L130.181 148.081Z" fill="#33342E"/>
</svg>
