<svg width="210" height="210" viewBox="0 0 210 210" fill="none" xmlns="http://www.w3.org/2000/svg">
<path d="M137.306 93.7437C154.925 81.0786 174.077 79.2138 194.103 79.8564C195.34 79.8963 196.608 79.6191 197.558 79.4154L199.624 79.1445C200.437 79.281 200.411 80.5515 200.411 80.8665L199.779 89.7852C199.958 92.3745 199.2 94.947 197.608 97.1562L190.504 107.02C188.257 110.138 185.228 112.795 181.635 114.794L165.688 123.673C162.769 125.298 159.275 126 155.814 125.657L152.626 125.34C152.032 125.282 151.429 125.309 150.843 125.422L149.337 125.714C147.779 126.017 146.143 125.752 144.822 124.983C139.879 124.181 133.522 120.29 129.536 117.556C126.71 115.617 125.391 112.499 126.095 109.462C126.395 108.164 126.8 106.963 127.229 106.201L130.691 100.023C132.145 97.4313 134.679 95.6337 137.309 93.7416L137.306 93.7437Z" fill="#C3B79D"/>
<path d="M63.3297 97.8496C61.7169 94.8823 58.1679 85.4617 57.1998 82.9438C55.6437 78.8971 45.885 70.3081 42.1596 68.5357C25.0971 60.4171 20.1894 57.601 11.2623 57.6094C10.29 57.6094 9.43113 58.7581 9.61593 59.8165L10.4832 66.5365C11.0229 69.2455 11.4282 73.9222 12.9633 75.8962C21.7497 84.4558 22.0017 94.9348 41.8236 107.195C44.3436 110.214 49.2933 113.629 53.3295 113.142L61.5237 102.367C62.3679 102.047 63.7728 98.6665 63.3297 97.8496Z" fill="#414845"/>
<path d="M100.432 105.33C100.376 113.383 98.6118 105.907 98.5068 105.41C96.8982 97.8015 96.6084 91.3356 97.5429 83.6958C97.9755 80.151 100.199 77.0724 102.633 74.46C112.029 64.3758 120.853 60.663 128.799 66.7194C130.25 67.824 130.908 69.8589 129.988 71.4339C128.9 73.2966 126.015 76.9737 123.272 80.4051C122.325 81.5916 121.248 83.2107 119.729 83.1687C108.62 82.8537 100.493 96.6633 100.432 105.33Z" fill="#C6CAC6"/>
<path d="M101.254 125.968C97.673 133.027 92.2214 139.062 82.9415 146.544C80.8835 148.203 78.5231 149.547 75.9359 150.436C66.278 153.756 55.9082 152.62 45.1058 148.753C42.7622 147.916 41.414 145.696 41.8508 143.476C42.4451 140.454 43.2326 137.567 44.312 134.889C46.0109 130.677 49.5263 127.277 54.0791 125.464L61.0574 123.224C61.6979 122.97 61.5572 122.113 60.8579 122.023C57.9704 121.642 53.2517 121.59 50.7821 120.336C49.394 119.631 48.9992 117.986 49.8812 116.81C51.9833 114.009 54.4403 111.166 56.9204 109.742L62.1095 101.871C62.7353 100.92 62.9768 99.7961 62.7794 98.6978C62.4161 96.6797 61.6454 95.0333 60.3854 93.0908C58.8608 90.7388 58.7348 87.8723 60.0074 85.4342C61.5026 82.5719 63.9407 79.8335 67.1474 77.4647C69.0185 76.0808 71.6792 75.9401 73.7603 77.1077L79.2161 80.1695L83.0507 80.2409C84.9218 80.2766 87.7904 81.1124 89.2289 82.2044C99.9116 90.3188 99.1829 97.3244 98.5907 105.697C98.5844 105.79 98.7188 105.808 98.7377 105.718C99.9494 99.6659 101.951 94.0778 105.615 89.4746C106.438 88.4414 107.415 87.5174 108.538 86.7488C112.545 83.9999 117.012 82.7042 123.205 82.1729C127.804 81.7781 132.371 83.3405 135.616 86.3477C139.037 89.5187 139.32 89.6426 138.946 94.9619C136.987 103.786 124.347 103.309 114.458 109.916C113.131 110.802 112.079 111.982 111.369 113.329L110.363 115.237C109.832 116.245 110.979 117.321 112.123 116.892C117.825 114.759 123.033 112.344 126.974 109.213L133.86 103.555C135.234 102.427 139.78 99.7121 141.639 99.5378L147.582 99.9557C149.423 99.7835 151.704 102.388 153.199 103.391L155.679 106.812C158.447 108.91 160.198 110.433 158.119 113.047C157.546 113.767 153.405 119.891 150.738 118.944L147.859 117.598C146.685 117.035 145.259 114.866 144.005 115.231L140.244 115.093C139.667 115.261 128.411 122.17 128.959 122.422L138.665 120.206C141.118 119.647 143.686 120.322 145.553 122.006C146.263 122.646 146.994 123.381 147.678 124.19C149.432 126.267 149.556 129.268 147.997 131.494C146.84 132.159 145.089 132.842 144.217 133.795L142.147 134.965C141.189 136.013 140.33 137.311 138.816 137.214L136.015 139.379C135.269 139.957 134.333 140.23 133.392 140.141C131.846 139.994 129.988 139.883 129.152 140.595L127.115 142.884C115.233 143.298 108.505 135.616 103.589 125.975C103.007 124.834 102.14 125.03 101.249 125.975L101.254 125.968Z" fill="#FEFCF7"/>
<path d="M150.606 104.918C160.283 102.415 170.211 99.1367 180.346 95.2412C180.762 95.111 181.085 95.5793 180.751 95.8229C175.062 99.9788 164.806 103.677 152.842 106.638L151.572 105.76L150.606 104.918Z" fill="#FDFBF6"/>
<path d="M100.955 116.012C104.252 109.588 113.768 96.915 119.326 93.6348C120.408 96.8772 109.387 107.203 100.955 116.012Z" fill="#838785"/>
<path d="M102.9 116.145C110.166 120.75 117.419 122.949 124.656 121.84C124.942 121.796 125.082 122.146 124.834 122.277C120.723 124.461 116.491 124.794 112.165 123.74C112.014 123.702 111.928 123.885 112.06 123.959L120.981 128.892C121.321 129.11 121.065 129.587 120.668 129.475C115.754 128.083 109.958 125.868 105.162 122.47C104.599 122.071 103.799 122.115 103.309 122.577C100.395 125.874 97.6458 128.333 95.4366 128.062L98.3871 124.23C98.469 124.122 98.3115 124.001 98.2044 124.087C93.5445 127.926 88.3239 130.168 82.7799 131.483C82.5699 131.533 82.4565 131.265 82.6497 131.176C88.1622 128.656 92.3517 126.258 93.9036 124.106C90.6675 126.571 86.5851 127.233 82.2591 127.373C81.6438 123.593 88.7901 123.566 96.8436 120.998L84.1764 121.949C83.559 121.997 83.1537 121.344 83.5506 120.92C84.0987 120.332 85.1844 119.971 86.3835 119.803C86.5998 119.773 86.6187 119.505 86.4108 119.437C85.6086 119.179 84.8358 118.807 84.0924 118.312C83.8047 118.121 83.9412 117.715 84.294 117.703C87.9627 117.581 91.9842 118.125 95.2413 118.788L102.898 116.147L102.9 116.145Z" fill="#D2C9B1"/>
<path d="M61.9059 125.171C65.8728 130.482 86.373 131.593 83.7459 127.178C80.6043 121.303 70.4256 121.492 63.0378 122.712C61.7925 122.917 61.194 124.215 61.9059 125.169V125.171Z" fill="#4A5351"/>
<path d="M61.9059 125.171C65.8728 130.481 86.5032 131.605 83.8761 127.191C80.7345 121.315 61.1919 124.217 61.9059 125.171Z" fill="#2D3433"/>
<path d="M84.8694 110.418C86.6985 114.843 91.6755 117.942 96.8646 120.481C98.0133 121.044 99.4161 120.924 100.407 120.177C106.453 115.626 101.871 116.535 107.48 107.801C107.528 107.728 107.411 107.656 107.356 107.726C105.594 109.933 103.935 112.01 102.514 113.79C102.289 114.072 101.793 113.885 101.848 113.541L103.255 104.884C103.276 104.752 103.068 104.702 103.013 104.826C101.699 107.866 100.714 110.832 100.126 113.706C100.096 113.849 99.8655 113.83 99.8613 113.683L99.5547 102.726C98.7252 106.43 98.0238 109.914 98.0889 112.713C98.091 112.827 97.9083 112.85 97.8768 112.738C96.9759 109.66 96.1149 106.455 95.2854 103.156C95.2833 106.81 95.4975 110.277 96.0876 113.425C96.1191 113.593 95.8629 113.658 95.7852 113.505L92.0577 106.121C92.0262 106.058 91.9212 106.088 91.9338 106.155C92.4462 108.706 93.2253 111.121 94.5378 113.268C94.7016 113.536 94.3446 113.807 94.08 113.614C92.1564 112.213 90.3672 110.546 88.6893 108.662C88.578 108.536 88.3575 108.65 88.4205 108.799C89.4474 111.239 90.8397 113.154 92.757 114.507C93.0888 114.74 92.8557 115.218 92.4441 115.145C89.6427 114.656 87.087 113.198 84.8694 110.416V110.418Z" fill="#54605E"/>
<path d="M105.365 118.604C106.281 115.687 108.158 112.302 110.538 108.675C109.546 112.959 108.198 116.628 106.344 119.437L105.365 118.604Z" fill="#54605E"/>
<path d="M86.6124 109.647C87.2655 110.819 87.0135 112.112 86.0496 112.539C85.0857 112.965 83.7774 112.36 83.1243 111.188C82.4712 110.017 82.7232 108.723 83.6871 108.297C84.651 107.87 85.9593 108.475 86.6124 109.647Z" fill="#333A36"/>
<path d="M89.6954 108.079C89.7464 107.263 89.1929 106.564 88.459 106.519C87.7251 106.473 87.0888 107.097 87.0378 107.913C86.9867 108.729 87.5402 109.428 88.2741 109.474C89.008 109.52 89.6443 108.895 89.6954 108.079Z" fill="#333A36"/>
<path d="M112.031 109.215C111.602 110.202 110.586 110.761 109.761 110.462C108.935 110.164 108.614 109.123 109.043 108.133C109.471 107.144 110.487 106.588 111.313 106.886C112.138 107.184 112.459 108.226 112.031 109.215Z" fill="#333A36"/>
<path d="M93.3331 105.791C93.3951 104.8 92.7773 103.955 91.9531 103.904C91.1289 103.852 90.4106 104.613 90.3486 105.604C90.2866 106.595 90.9044 107.44 91.7286 107.492C92.5528 107.543 93.2711 106.782 93.3331 105.791Z" fill="#333A36"/>
<path d="M108.711 108.156C108.354 109.091 107.432 109.647 106.651 109.397C105.869 109.147 105.525 108.188 105.882 107.253C106.239 106.319 107.161 105.762 107.942 106.012C108.723 106.262 109.068 107.222 108.711 108.156Z" fill="#333A36"/>
<path d="M104.858 105.231C105.191 103.994 104.676 102.781 103.708 102.521C102.74 102.261 101.686 103.052 101.354 104.288C101.021 105.525 101.536 106.738 102.504 106.998C103.472 107.259 104.526 106.467 104.858 105.231Z" fill="#333A36"/>
<path d="M96.9717 103.226C97.1544 104.393 96.5412 105.429 95.6004 105.538C94.6596 105.647 93.7482 104.788 93.5655 103.618C93.3828 102.451 93.996 101.415 94.9368 101.306C95.8776 101.197 96.789 102.056 96.9717 103.226Z" fill="#333A36"/>
</svg>
