<svg width="202" height="58" viewBox="0 0 202 58" fill="none" xmlns="http://www.w3.org/2000/svg">
<g clip-path="url(#clip0_42_1039)">
<path fill-rule="evenodd" clip-rule="evenodd" d="M79.689 43.7192C83.5204 43.9936 87.9851 41.0172 89.5578 39.3178C95.0252 33.4018 95.1571 24.8471 89.6528 18.6515C87.6052 16.3452 82.7921 13.7962 79.7471 14.1551H68.7225V43.6823L79.7154 43.7192H79.689ZM74.9393 37.323V20.5144C76.665 20.4012 78.3961 20.4012 80.1218 20.5144C81.4795 20.6718 82.7747 21.1732 83.8846 21.971C90.2175 26.2984 87.5788 36.6158 80.0162 37.3071C78.3262 37.426 76.6301 37.4312 74.9393 37.323Z" fill="#008CEB"/>
<path fill-rule="evenodd" clip-rule="evenodd" d="M176.472 43.771H182.757V37.4064H195.228L195.265 43.7393H201.55V33.2478C201.55 30.0813 201.814 26.1338 201.022 23.2682C200.303 20.6448 198.746 18.3285 196.588 16.6728C194.43 15.0171 191.789 14.1128 189.069 14.0978C186.349 14.0829 183.698 14.9581 181.522 16.59C179.346 18.2219 177.763 20.5209 177.015 23.1363C176.171 25.9649 176.456 30.0233 176.456 33.1634C176.456 36.7098 176.419 40.2773 176.456 43.8237L176.472 43.771ZM182.762 31.0049C182.726 28.3662 182.446 25.5428 183.686 23.5109C184.23 22.5755 185.013 21.801 185.954 21.2661C186.895 20.7312 187.96 20.4551 189.043 20.4659C190.119 20.4738 191.175 20.761 192.108 21.2994C193.04 21.8377 193.817 22.6089 194.362 23.5373C195.587 25.6483 195.296 28.287 195.265 31.0102L182.762 31.0049Z" fill="#008CEB"/>
<path fill-rule="evenodd" clip-rule="evenodd" d="M104.593 43.7662H110.858C110.858 42.4363 110.689 38.3674 110.916 37.4016H123.339L123.381 43.7609H129.656C129.624 40.2356 129.656 36.7156 129.656 33.2061C129.656 30.198 129.935 25.8916 129.128 23.2212C128.404 20.6012 126.845 18.2893 124.686 16.6375C122.528 14.9856 119.889 14.0842 117.17 14.0705C114.452 14.0567 111.804 14.9314 109.629 16.5614C107.454 18.1913 105.871 20.4873 105.121 23.0998C104.282 25.8441 104.567 30.0396 104.567 33.0953C104.567 36.6206 104.488 40.2356 104.567 43.7504L104.593 43.7662ZM110.863 31.0054C110.821 28.3667 110.551 25.5063 111.792 23.5167C112.336 22.5837 113.115 21.8097 114.052 21.2717C114.988 20.7337 116.05 20.4506 117.13 20.4506C118.21 20.4506 119.271 20.7337 120.208 21.2717C121.144 21.8097 121.924 22.5837 122.468 23.5167C123.698 25.6277 123.402 28.3086 123.381 30.9949L110.863 31.0054Z" fill="#008CEB"/>
<path fill-rule="evenodd" clip-rule="evenodd" d="M140.68 25.6859L140.59 30.082C140.59 33.7762 140.411 40.6738 140.59 43.6766H146.733C146.876 41.5657 146.512 26.5725 146.897 26.0923C146.897 23.1791 149.942 20.4665 153.014 20.456C154.61 20.4464 156.147 21.0598 157.299 22.1659C158.08 22.8783 159.278 24.5038 159.257 26.145C159.542 26.3086 159.315 41.9773 159.404 43.7136H165.553L165.505 25.7967C165.658 24.3929 164.814 22.2239 164.27 21.1262C163.262 19.0347 161.689 17.2671 159.728 16.0238C157.767 14.7805 155.497 14.111 153.176 14.0913C150.854 14.0715 148.573 14.7022 146.591 15.9119C144.61 17.1217 143.006 18.8621 141.963 20.9362C141.435 22.0181 140.548 24.2452 140.68 25.6859Z" fill="#008CEB"/>
<path d="M28.82 57.641C44.7368 57.641 57.64 44.7378 57.64 28.821C57.64 12.9041 44.7368 0.000976562 28.82 0.000976562C12.9032 0.000976562 0 12.9041 0 28.821C0 44.7378 12.9032 57.641 28.82 57.641Z" fill="#008CEB"/>
<path d="M45.6127 28.9416V37.053C45.6127 37.5807 45.3858 37.6916 44.9425 37.433C44.3495 37.0771 43.7323 36.7632 43.0954 36.4936C41.172 35.7273 39.0886 35.4499 37.0316 35.6862C34.7866 35.9774 32.5833 36.53 30.4665 37.3327C28.3555 38.0452 26.2868 38.8157 24.1336 39.412C22.3502 39.9416 20.4942 40.1856 18.6345 40.135C16.5736 40.0551 14.5705 39.4305 12.8294 38.3249C12.6106 38.1931 12.4311 38.0052 12.3095 37.7806C12.188 37.556 12.1287 37.3029 12.138 37.0477C12.138 31.7351 12.138 26.4225 12.138 21.1099C12.138 20.8513 12.138 20.5452 12.3702 20.4133C12.6024 20.2814 12.8399 20.4977 13.0405 20.6297C14.9312 21.9081 17.1705 22.5716 19.4525 22.5295C21.0842 22.4626 22.6979 22.1623 24.2444 21.6377C26.4398 20.9569 28.5614 20.0544 30.7198 19.2892C32.4 18.6435 34.1228 18.1145 35.8759 17.706C37.3804 17.3537 38.9416 17.3167 40.4611 17.5973C41.9806 17.878 43.4256 18.4702 44.705 19.3367C44.9983 19.5164 45.2385 19.771 45.4008 20.0743C45.5631 20.3776 45.6417 20.7187 45.6286 21.0624C45.6286 23.7011 45.6286 26.3398 45.6286 28.9786L45.6127 28.9416Z" fill="#FEFEFE"/>
</g>
<defs>
<clipPath id="clip0_42_1039">
<rect width="201.598" height="57.64" fill="white"/>
</clipPath>
</defs>
</svg>
