<svg width="250" height="58" viewBox="0 0 250 58" fill="none" xmlns="http://www.w3.org/2000/svg">
<g clip-path="url(#clip0_42_1035)">
<path fill-rule="evenodd" clip-rule="evenodd" d="M28.8186 0C34.5183 0 40.0901 1.69018 44.8293 4.85681C49.5685 8.02343 53.2622 12.5243 55.4434 17.7902C57.6246 23.0561 58.1954 28.8505 57.0834 34.4408C55.9714 40.031 53.2267 45.166 49.1964 49.1964C45.166 53.2267 40.031 55.9714 34.4408 57.0834C28.8505 58.1954 23.0561 57.6246 17.7902 55.4434C12.5243 53.2622 8.02343 49.5685 4.85681 44.8293C1.69018 40.0901 0 34.5183 0 28.8186C0 21.1754 3.03624 13.8453 8.44077 8.44077C13.8453 3.03624 21.1754 0 28.8186 0Z" fill="#02AFD9"/>
<path fill-rule="evenodd" clip-rule="evenodd" d="M12.2037 35.2887C12.5691 40.0121 15.5254 43.6393 20.9662 43.925C26.195 44.2109 31.4355 44.2109 36.6643 43.925C38.9338 43.8223 41.0849 42.8831 42.7029 41.2884C44.3209 39.6937 45.2912 37.5564 45.4268 35.2887C45.6128 32.8661 45.6947 30.4458 45.6726 28.0276C44.4635 21.4973 38.9828 21.2647 38.4713 21.2581H20.0362C19.7243 21.2581 19.4252 21.1342 19.2047 20.9137C18.9842 20.6932 18.8603 20.3941 18.8603 20.0822C18.8603 19.7704 18.9842 19.4713 19.2047 19.2508C19.4252 19.0303 19.7243 18.9064 20.0362 18.9064H38.5111C38.3384 14.5284 33.5021 13.7113 31.2035 13.5917L30.0011 13.5386C26.9983 13.4987 24.0221 13.5386 20.9928 13.8043C15.439 14.2361 12.5957 17.6906 12.2303 22.4406C11.8982 26.7257 11.8982 31.0301 12.2303 35.3153L12.2037 35.2887ZM39.9328 32.8041V34.3653C39.9311 34.6467 39.8185 34.916 39.6195 35.115C39.4206 35.3139 39.1512 35.4265 38.8699 35.4282C38.588 35.4282 38.3176 35.3162 38.1183 35.1169C37.9189 34.9176 37.8069 34.6472 37.8069 34.3653V32.8041C37.5715 32.6503 37.3779 32.4406 37.2434 32.1937C37.1089 31.9467 37.0378 31.6703 37.0363 31.3891C37.0645 30.921 37.2703 30.4814 37.6117 30.1599C37.953 29.8384 38.4043 29.6594 38.8732 29.6594C39.3421 29.6594 39.7933 29.8384 40.1347 30.1599C40.4761 30.4814 40.6819 30.921 40.7101 31.3891C40.708 31.6702 40.6366 31.9464 40.5022 32.1932C40.3677 32.4401 40.1744 32.6499 39.9394 32.8041H39.9328Z" fill="white"/>
<path fill-rule="evenodd" clip-rule="evenodd" d="M203.012 26.2069V31.4086C203.012 31.4086 201.232 34.9029 195.087 35.7599C188.942 36.6169 188.935 32.7904 189.38 31.774C189.825 30.7575 191.267 29.4222 196.356 28.5918C201.783 27.7083 202.999 26.1737 202.999 26.1737L203.012 26.2069ZM210.253 21.1978V41.513H203.61L203.537 38.1914C201.006 40.6785 197.636 42.1288 194.09 42.2571C180.691 42.6357 175.602 27.8478 191.778 23.4167C195.605 22.3671 199.352 22.666 201.318 21.6496C202.647 20.9853 203.012 19.743 202.115 18.5737C198.794 14.2623 190.862 16.0294 188.749 22.0615L182.072 20.4206C183.74 13.6909 189.154 10.6815 195.605 10.0571C202.534 9.39274 210.28 13.1462 210.28 21.1978H210.253ZM83.6788 17.5241C81.927 17.5162 80.2123 18.0285 78.7519 18.996C77.2914 19.9635 76.1511 21.3427 75.4752 22.9589C74.7993 24.5751 74.6184 26.3556 74.9553 28.0747C75.2922 29.7938 76.1319 31.3743 77.3678 32.6158C78.6037 33.8573 80.1804 34.7041 81.898 35.0487C83.6155 35.3934 85.3968 35.2205 87.016 34.552C88.6353 33.8834 90.0196 32.7493 90.9937 31.2932C91.9678 29.8372 92.4878 28.1248 92.4878 26.373C92.4905 25.2135 92.2647 24.0649 91.8234 22.9928C91.3821 21.9206 90.734 20.9458 89.916 20.1241C89.098 19.3024 88.1262 18.6499 87.056 18.2038C85.9858 17.7577 84.8383 17.5267 83.6788 17.5241ZM100.951 11.0071H92.4945V14.3885C89.7043 11.9376 86.1171 10.5867 82.4033 10.5885C73.8003 10.5885 66.8248 17.7433 66.8248 26.5656C66.8248 35.3879 73.8003 42.5427 82.4033 42.5427C86.1171 42.5445 89.7043 41.1937 92.4945 38.7428V41.8119C92.5228 42.906 92.332 43.9947 91.9332 45.0139C91.5345 46.0331 90.9358 46.9622 90.1726 47.7465C89.4093 48.5309 88.4968 49.1546 87.4888 49.5809C86.4808 50.0072 85.3977 50.2276 84.3033 50.229C80.3904 50.229 77.2083 49.4717 74.5576 46.356L69.0769 51.2853C73.5412 56.1614 78.1384 57.6429 84.4229 57.6429C93.6703 57.6429 100.951 51.365 100.951 40.9085V11.0137V11.0071ZM250.007 10.5088H240.952L231.957 30.1463L221.633 10.5088H212.578L227.493 38.477L219.614 54.7265H228.702L250.007 10.542V10.5088ZM161.538 17.5241C163.29 17.5162 165.005 18.0285 166.465 18.996C167.925 19.9635 169.066 21.3427 169.742 22.9589C170.418 24.5751 170.599 26.3556 170.262 28.0747C169.925 29.7938 169.085 31.3743 167.849 32.6158C166.613 33.8573 165.037 34.7041 163.319 35.0487C161.601 35.3934 159.82 35.2205 158.201 34.552C156.582 33.8834 155.197 32.7493 154.223 31.2932C153.249 29.8372 152.729 28.1248 152.729 26.373C152.726 25.2135 152.952 24.0649 153.394 22.9928C153.835 21.9206 154.483 20.9458 155.301 20.1241C156.119 19.3024 157.091 18.6499 158.161 18.2038C159.231 17.7577 160.379 17.5267 161.538 17.5241ZM144.266 11.0071H152.716V14.3885C155.506 11.9376 159.093 10.5867 162.807 10.5885C171.443 10.5885 178.392 17.7433 178.392 26.5656C178.392 35.3879 171.417 42.5427 162.807 42.5427C159.093 42.5445 155.506 41.1937 152.716 38.7428V54.6866H144.266V11.0071ZM121.732 17.2783C123.557 17.3357 125.326 17.9296 126.817 18.9858C128.307 20.0421 129.454 21.5139 130.113 23.2176C130.772 24.9213 130.915 26.7815 130.524 28.5659C130.133 30.3504 129.225 31.9801 127.913 33.2518C126.602 34.5234 124.945 35.3806 123.149 35.7164C121.353 36.0522 119.498 35.8518 117.816 35.14C116.133 34.4283 114.698 33.2369 113.688 31.7144C112.678 30.1919 112.14 28.4057 112.139 26.5789C112.157 25.338 112.42 24.1129 112.912 22.9737C113.404 21.8344 114.116 20.8034 115.007 19.9395C115.898 19.0757 116.95 18.396 118.104 17.9394C119.258 17.4827 120.491 17.2581 121.732 17.2783ZM121.732 9.9707C131.185 9.9707 138.845 17.3913 138.845 26.5391C138.845 35.6868 131.185 43.1074 121.732 43.1074C112.278 43.1074 104.618 35.6868 104.618 26.5391C104.618 17.3913 112.278 9.9707 121.732 9.9707Z" fill="black"/>
</g>
<defs>
<clipPath id="clip0_42_1035">
<rect width="250" height="57.6371" fill="white"/>
</clipPath>
</defs>
</svg>
