<svg width="153" height="58" viewBox="0 0 153 58" fill="none" xmlns="http://www.w3.org/2000/svg">
<g clip-path="url(#clip0_42_1055)">
<mask id="mask0_42_1055" style="mask-type:luminance" maskUnits="userSpaceOnUse" x="-1929" y="-28" width="2325" height="1308">
<path fill-rule="evenodd" clip-rule="evenodd" d="M-1928.29 1279.65H395.845V-27.6775H-1928.29V1279.65Z" fill="white"/>
</mask>
<g mask="url(#mask0_42_1055)">
<mask id="mask1_42_1055" style="mask-type:luminance" maskUnits="userSpaceOnUse" x="-4" y="-3" width="368" height="66">
<path d="M-3.03503 62.3809L363.59 62.381L363.59 -2.9849L-3.03517 -2.98503L-3.03503 62.3809Z" fill="white"/>
</mask>
<g mask="url(#mask1_42_1055)">
<path d="M49.8339 9.4067L89.0481 9.40671L89.0481 32.9337L72.597 32.9337L89.0482 47.9902L75.0728 47.9902L58.9392 32.9337L58.9392 47.9902L49.834 47.9902L49.8339 24.0729L78.5856 24.0729L78.5856 18.3478L49.8339 18.3478L49.8339 9.4067Z" fill="black"/>
<path d="M93.1201 47.9902L102.704 47.9902L102.704 9.32852L93.12 9.32852L93.1201 47.9902Z" fill="black"/>
<path d="M16.3718 38.6582L16.3717 9.4067L8.86442 9.4067C7.50679 9.4067 6.46841 10.427 6.46841 11.6801C6.46842 18.5835 6.38865 38.8936 6.38867 45.6375C6.38867 46.8923 7.42706 47.9902 8.70488 47.9902C13.896 47.9902 28.8302 47.9902 30.9856 47.9902L30.9856 38.6582L16.3718 38.6582Z" fill="black"/>
<path d="M35.9373 57.6357C36.8169 57.6357 43.5249 57.6357 45.7619 57.6357C45.7619 57.6357 45.7618 38.5794 45.7618 38.2658C42.5666 38.2658 39.214 38.2658 35.9372 38.2658C35.9372 44.6962 35.9372 51.1266 35.9373 57.6357Z" fill="black"/>
<path d="M21.1634 9.40652C21.1634 9.56455 21.1634 19.0519 21.1634 19.0519C25.5561 19.0519 31.1457 19.0519 35.9372 19.0519C35.9372 25.7196 35.9372 33.4824 35.9372 33.4824C38.1742 33.4824 44.8822 33.4824 45.7618 33.4824L45.7618 11.7603C45.7618 10.5044 44.722 9.48416 43.4461 9.40653C38.6547 9.40653 27.3125 9.40653 21.1634 9.40652Z" fill="black"/>
<path d="M21.1634 23.7562C21.1634 26.9722 21.1634 30.1883 21.1635 33.5596C21.9621 33.5596 22.8406 33.5596 23.6393 33.5596C25.8765 33.5596 28.6699 33.5596 30.9069 33.5596C30.9069 33.5596 30.9068 23.9142 30.9068 23.7562C27.7116 23.7562 24.4379 23.7562 21.1634 23.7562ZM28.032 30.5792C27.0737 30.5792 25.9552 30.5792 25.0756 30.5792C24.7575 30.5792 24.4379 30.5792 24.0386 30.5792C24.0386 29.2457 24.0386 27.9925 24.0386 26.659C25.396 26.659 26.6746 26.659 28.032 26.659C28.032 26.7366 28.032 30.5792 28.032 30.5792Z" fill="black"/>
<path d="M149.744 38.2652L149.744 52.6946C149.744 53.9492 148.625 54.9689 147.35 54.9689L132.655 54.9689L132.655 57.3213L149.744 57.3213L149.825 57.3213C151.023 57.3213 152.06 56.3019 152.06 55.0471L152.06 54.9689L152.059 38.2652L149.744 38.2652Z" fill="black"/>
<path d="M2.39553 18.9741L2.3955 4.54357C2.3955 3.29042 3.35379 2.34779 4.63161 2.34779L19.3267 2.3478C19.4065 2.3478 19.4065 2.27017 19.4065 2.27017L19.4065 0.0743897C19.4065 0.0743897 19.4065 -0.00323744 19.3267 -0.00323747L2.39549 -0.00324354C1.03786 -0.00324403 -0.000524543 1.01702 -0.000521867 2.34779L-0.000488437 18.9741C-0.000488281 19.0518 0.0793226 19.0518 0.0793226 19.0518L2.31572 19.0518C2.31572 19.0518 2.39553 19.0518 2.39553 18.9741Z" fill="black"/>
<path d="M145.59 18.9741L145.59 9.40641L106.857 9.40639L106.857 23.7566L106.857 33.4047L132.655 33.4047L132.655 38.1874L106.857 38.1874L106.857 47.833L145.59 47.833L145.59 23.837L119.795 23.837L119.795 18.9741L145.59 18.9741Z" fill="black"/>
</g>
</g>
</g>
<defs>
<clipPath id="clip0_42_1055">
<rect width="152.063" height="57.64" fill="white"/>
</clipPath>
</defs>
</svg>
